<svg xmlns="http://www.w3.org/2000/svg" viewBox="0 0 1500 250"><rect fill="#031F20" x="584" width="916" height="250"/><rect fill="#6FBE44" x="-2e-005" width="584" height="250"/><path fill="white" d="M758.8 122.6l6.4 0c5.8,0 10.4,-1.2 13.4,-3.6 3,-2.2 4.4,-5.8 4.4,-10.2 0,-4.6 -1.2,-8 -3.8,-10 -2.6,-2 -6.4,-3.4 -11.6,-3.4l-8.8 0 0 27zm43.6 -14.4c0,9.8 -3.2,17.2 -9.2,22.6 -6,5.2 -14.8,7.8 -26,7.8l-8.4 0 0 32.2 -19.4 0 0 -91 29.2 0c11,0 19.4,2.2 25.2,7 5.8,4.8 8.6,11.8 8.6,21.2l0 0.2zm36.4 12l6.2 0c6,0 10.6,-1 13.6,-3.2 3,-2 4.4,-5.2 4.4,-9.6 0,-4.4 -1.4,-7.2 -4.4,-9.2 -3,-1.8 -7.6,-2.8 -13.8,-2.8l-5.8 0 0 24.6 -0.2 0zm0 15.6l0 35 -19.4 0 0 -91 26.4 0c12.2,0 21.4,2.2 27.6,6.6 5.8,4.6 9,11.2 9,20.4 0,5.4 -1.4,10.2 -4.4,14.4 -3,4.2 -7,7.6 -12.6,9.8 13.8,20.4 22.8,33.8 26.8,39.6l-21.4 0 -21.6 -35 -10.2 0 -0.2 0.2zm147.6 -10.6c0,15 -3.8,26.6 -11.2,34.8 -7.6,8.2 -18.2,12 -32,12 -14,0 -24.6,-4 -32,-12 -7.6,-8.2 -11.2,-19.8 -11.2,-34.8 0,-15.2 3.8,-26.6 11.2,-34.8 7.6,-8 18.4,-12 32.2,-12 14,0 24.6,4 32,12 7.6,8.2 11,19.6 11,34.8zm-66.4 0c0,10.2 1.8,18 5.8,23 4,5.2 9.6,7.8 17.2,7.8 15.4,0 23.2,-10.2 23.2,-30.6 0,-20.4 -7.8,-30.8 -23,-30.8 -7.8,0 -13.6,2.6 -17.2,7.8 -4,5.2 -5.8,13 -5.8,23.2l-0.2 0zm116.6 45.6l-19.4 0 0 -75 -24.8 0 0 -16 68.8 0 0 16 -24.8 0 0 75 0.2 0zm91.2 0l-52.6 0 0 -91 52.6 0 0 15.8 -33.2 0 0 20 30.8 0 0 15.8 -30.8 0 0 23.6 33.2 0 0 16 0 -0.2zm57.8 -76.2c-7.2,0 -13,2.8 -16.8,8.2 -4,5.4 -6,13.2 -6,23 0,20.2 7.8,30.4 23,30.4 6.4,0 14.2,-1.6 23.4,-4.8l0 16.2c-7.6,3.2 -15.8,4.6 -25,4.6 -13.4,0 -23.4,-4 -30.4,-12 -7,-8.2 -10.6,-19.6 -10.6,-34.6 0,-9.4 1.6,-17.8 5.2,-24.8 3.6,-7 8.4,-12.6 14.8,-16.4 6.4,-3.8 14,-5.6 22.8,-5.6 8.8,0 17.8,2 26.6,6.4l-6.2 15.6c-3.4,-1.6 -6.8,-3 -10.2,-4.2 -3.6,-1.2 -6.8,-1.8 -10.2,-1.8zm77.8 76.2l-19.4 0 0 -75 -24.8 0 0 -16 68.8 0 0 16 -24.8 0 0 75 0.2 0zm91.2 0l-52.6 0 0 -91 52.6 0 0 15.8 -33.2 0 0 20 30.8 0 0 15.8 -30.8 0 0 23.6 33.2 0 0 16 0 -0.2zm94.6 -46.4c0,15 -4.4,26.4 -12.8,34.4 -8.6,8 -20.8,11.8 -36.8,11.8l-25.8 0 0 -91 28.6 0c14.8,0 26.4,4 34.6,11.8 8.2,8 12.2,18.8 12.2,33zm-20 0.4c0,-19.6 -8.6,-29.4 -25.8,-29.4l-10.2 0 0 59.4 8.4 0c18.6,0 28,-10 28,-30l-0.2 0zm-845 -94.2c52.2,0 94.6,42.2 94.6,94.6 0,52.2 -42.2,94.6 -94.6,94.6 -52.2,0 -94.6,-42.2 -94.6,-94.6 0,-52.2 42.2,-94.6 94.6,-94.6zm-433.6 93.8c0,15 -4.4,26.4 -13,34.6 -8.6,8 -20.8,12 -37,12l-25.8 0 0 -91.2 28.6 0c14.8,0 26.4,4 34.6,11.8 8.2,8 12.2,18.8 12.2,33l0.4 -0.2zm-20 0.4c0,-19.6 -8.6,-29.4 -25.8,-29.4l-10.2 0 0 59.4 8.4 0c18.6,0 28,-10 28,-30l-0.2 0zm77.6 46l-21.8 -71.4 -0.6 0c0.8,14.6 1.2,24.2 1.2,29.2l0 42.6 -17.2 0 0 -91.2 26.2 0 21.6 69.8 0.4 0 23 -69.8 26.2 0 0 91.2 -18.2 0 0 -43.2c0,-2 0,-4.4 0.2,-7 0,-2.8 0.4,-9.8 0.8,-21.2l-0.6 0 -23.6 71.4 -17.8 0 0 -0.2zm120.6 -76.4c-7.2,0 -13,2.8 -16.8,8.2 -4,5.4 -6,13.2 -6,23 0,20.4 7.8,30.4 23,30.4 6.4,0 14.2,-1.6 23.4,-4.8l0 16.2c-7.6,3.2 -15.8,4.6 -25,4.6 -13.4,0 -23.4,-4 -30.4,-12 -7,-8.2 -10.6,-19.6 -10.6,-34.6 0,-9.4 1.6,-17.8 5.2,-25 3.6,-7 8.4,-12.6 14.8,-16.4 6.4,-3.8 14,-5.6 22.8,-5.6 8.8,0 17.8,2 26.6,6.4l-6.2 15.6c-3.4,-1.6 -6.8,-3.2 -10.2,-4.2 -3.6,-1.2 -6.8,-1.8 -10.2,-1.8l0 0.2zm98.6 76.4l-6.6 -21.6 -33.4 0 -6.6 21.6 -20.8 0 32 -91.4 23.6 0 32.2 91.4 -20.8 0 0.4 0zm-11.2 -38c-6,-19.6 -9.6,-30.8 -10.4,-33.4 -0.8,-2.6 -1.2,-4.6 -1.6,-6 -1.4,5.4 -5.2,18.6 -11.8,39.6l23.8 0 0.2 -0.2z"/><path fill="#6FBE44" d="M608 90.4l-0.2 0c-7.6,-31.8 -40,-31.8 -47.2,0l0 0 -11.8 0c11.2,-47.6 60.2,-47.6 71.2,0l-11.8 0zm16.8 105c3.4,0 6,-2.8 6,-6l0 -84c0,-3.4 -2.8,-6 -6,-6l-81.2 0c-3.4,0 -6,2.8 -6,6l0 84c0,3.4 2.8,6 6,6l81.2 0zm-54.8 -23l9 -26.2c-4.4,-1.8 -7.6,-6.4 -7.6,-11.4 0,-6.8 5.6,-12.6 12.6,-12.6 6.8,0 12.6,5.6 12.6,12.6 0,5 -3.2,9.6 -7.6,11.4l9 26.2 -28.4 0 0.4 0z"/></svg>