<svg xmlns="http://www.w3.org/2000/svg" width="249" height="50.124" viewBox="0 0 249 50.124"><g transform="translate(-11.522 -388.255)"><path d="M21.025,403.423l7.7-3.8,6.792,4.075-8.466,4.212c6.881,4.482,8.421,11.5,8.873,14.9.363,3.078-2.9,8.241-5.8,11.953v-.091h.045v-.045h0l.046-.045h0v-.046l.045-.045h0v-.045l.046-.046h0v-.045l.045-.045h0v-.046H30.4v-.045h0v-.045h.046v-.091h0l.045-.045v-.046h0l.045-.091h0l.046-.136.045-.045v-.045h0l.045-.091h0v-.045l.046-.091h0l.045-.091h0v-.045h0v-.045h.045v-.046h0v-.045h0v-.045h0l.046-.091v-.045h0l.045-.091h0v-.091l.045-.045v-.136l.046-.046h0v-.089h0l.045-.091h0v-.136h0l.045-.091h0v-.136h0l.046-.089v-.182h0l.045-.091V431.5h0l.045-.136h0v-.136h0v-.136h0l.046-.136h0v-.407h0V430.5l.045-.136h0v-.724h0v-.318a21.79,21.79,0,0,0-2.535-9.915c-3.124-6.2-7.154-8.015-12.542-11.276a7.51,7.51,0,0,1-3.169-2.715,8.286,8.286,0,0,1-1.5-3.941c-.316-2.807,1.222-5.116,4.618-6.881l12.135-6.34,6.838,4.075-12.135,6.295a4.359,4.359,0,0,0-2.219,2.219,3.057,3.057,0,0,0,.225,2.58Zm8.2,32.419Z" transform="translate(0)" fill="#ec4326"/><path d="M12.964,422.6l5.479-4.528-5.479-3.4Z" transform="translate(0.862 15.781)" fill="#fff" fill-rule="evenodd"/><path d="M12.964,404.753v7.924l8.739,5.388a1.731,1.731,0,0,0,2.083.18,2.45,2.45,0,0,0,.906-2.219,7.329,7.329,0,0,0-.906-3.4,5.787,5.787,0,0,0-2.083-2.49Z" transform="translate(0.862 9.855)" fill="#fff" fill-rule="evenodd"/><path d="M47.8,403.911a4.357,4.357,0,0,0-2.083.407A2.939,2.939,0,0,0,44.54,405.5a4.893,4.893,0,0,0-.5,1.629,11.752,11.752,0,0,0-.136,1.767,10.914,10.914,0,0,0,.136,1.629,4.149,4.149,0,0,0,.589,1.631,3.753,3.753,0,0,0,1.132,1.267,3.863,3.863,0,0,0,2.037.5,3.692,3.692,0,0,0,1.992-.5,3.753,3.753,0,0,0,1.133-1.267,4.924,4.924,0,0,0,.543-1.631,10.705,10.705,0,0,0,.136-1.629,10.141,10.141,0,0,0-.136-1.585,4.924,4.924,0,0,0-.543-1.631,3.383,3.383,0,0,0-1.133-1.268,3.707,3.707,0,0,0-1.992-.5Zm-7.878,5.025a13.606,13.606,0,0,1,.452-3.759,6.977,6.977,0,0,1,1.359-2.853,6.793,6.793,0,0,1,2.444-1.765,9.444,9.444,0,0,1,3.623-.634,8.772,8.772,0,0,1,3.939,1.041,5.085,5.085,0,0,1,1.449,1.041,6.6,6.6,0,0,1,1.313,1.584,11.777,11.777,0,0,1,.906,2.263,14.854,14.854,0,0,1,0,6.113,9.387,9.387,0,0,1-.815,2.265,8.621,8.621,0,0,1-1.177,1.538,9.071,9.071,0,0,1-1.358,1.041,7.635,7.635,0,0,1-3.714.906,7.391,7.391,0,0,1-1.992-.407,6.035,6.035,0,0,1-1.72-1.086,5.371,5.371,0,0,1-1.449-2.128l.724.95v8.014H39.922Zm17.839-3.576a4.543,4.543,0,0,1,.725-2.762,6.293,6.293,0,0,1,1.629-1.5,5.527,5.527,0,0,1,2.354-.724h4.709v4.075H64.01a1.945,1.945,0,0,0-1.086.225,2.642,2.642,0,0,0-.679.5,2.179,2.179,0,0,0-.363.725v11.5H57.761Zm15.486-4.98V417.4H69.126V400.379Zm-4.121-3.8a6.6,6.6,0,0,1,.046-1.086c0-.272.045-.452.181-.543a.771.771,0,0,1,.589-.18,9.642,9.642,0,0,1,1.267-.046,9.3,9.3,0,0,1,1.224.046.767.767,0,0,1,.588.18c.136.091.182.272.182.543a6.83,6.83,0,0,1,.045,1.086,7.816,7.816,0,0,1-.045,1.132.565.565,0,0,1-.182.5,1.012,1.012,0,0,1-.588.227h-2.49a1.017,1.017,0,0,1-.589-.227.565.565,0,0,1-.181-.5,7.549,7.549,0,0,1-.046-1.132ZM83.344,417.4H80.582l-5.524-17.024h4.119L83.344,413.1l4.166-12.723H91.63L86.105,417.4Zm25.81,0h-3.985v-2.354l.725-.95a5.387,5.387,0,0,1-1.449,2.128,5.879,5.879,0,0,1-1.676,1.086,7.712,7.712,0,0,1-2.038.407,7.454,7.454,0,0,1-3.667-.906,6.014,6.014,0,0,1-1.358-1.041,5.753,5.753,0,0,1-1.177-1.538,9.445,9.445,0,0,1-.861-2.265,14.927,14.927,0,0,1,0-6.113,9.463,9.463,0,0,1,.906-2.263,6.477,6.477,0,0,1,1.268-1.584,6,6,0,0,1,1.493-1.041,8.657,8.657,0,0,1,3.985-1.041,9.364,9.364,0,0,1,3.576.634,6.1,6.1,0,0,1,2.445,1.765,7.647,7.647,0,0,1,1.4,2.853,15.592,15.592,0,0,1,.409,3.759Zm-7.833-13.493a3.605,3.605,0,0,0-1.993.5,3.534,3.534,0,0,0-1.177,1.268,4.961,4.961,0,0,0-.543,1.631,10.337,10.337,0,0,0-.136,1.585,10.911,10.911,0,0,0,.136,1.629,4.96,4.96,0,0,0,.543,1.631,3.935,3.935,0,0,0,1.177,1.267,3.591,3.591,0,0,0,1.993.5,3.7,3.7,0,0,0,1.992-.5,3.9,3.9,0,0,0,1.177-1.267,4.96,4.96,0,0,0,.543-1.631,10.705,10.705,0,0,0,.136-1.629,11.546,11.546,0,0,0-.136-1.767,4.019,4.019,0,0,0-.5-1.629,2.818,2.818,0,0,0-1.131-1.177,4.618,4.618,0,0,0-2.083-.407Zm14.127.452v7.517a1.555,1.555,0,0,0,.363.724,2.025,2.025,0,0,0,.679.5,2.425,2.425,0,0,0,1.086.227h2.535V417.4h-4.075a5.545,5.545,0,0,1-2.354-.725,6.288,6.288,0,0,1-1.629-1.494,4.878,4.878,0,0,1-.679-2.762V395.806h4.075v4.573h3.848v3.984Zm22.323,2.354c.045.363.089.679.136,1.041a9.22,9.22,0,0,1,.045,1.133v.634H126.177c.045.361.136.768.181,1.131a11.486,11.486,0,0,0,.318,1.177,4.241,4.241,0,0,0,1.177,1.54,3.083,3.083,0,0,0,2.128.679,3.294,3.294,0,0,0,2.174-.679,4.679,4.679,0,0,0,1.131-1.54h4.348a8.366,8.366,0,0,1-.725,2.038,10.824,10.824,0,0,1-1.086,1.493,5.627,5.627,0,0,1-1.268,1.088,12.353,12.353,0,0,1-1.313.679,8.85,8.85,0,0,1-3.26.588,8.739,8.739,0,0,1-3.984-.906,7.817,7.817,0,0,1-1.45-1.041,7.387,7.387,0,0,1-1.313-1.538,9.514,9.514,0,0,1-.859-2.265,13.064,13.064,0,0,1,0-6.113,9.528,9.528,0,0,1,.859-2.263,6.634,6.634,0,0,1,1.313-1.584,5.113,5.113,0,0,1,1.45-1.041,8.806,8.806,0,0,1,3.984-1.041,10.006,10.006,0,0,1,3.487.77q.611.34,1.358.815a7.7,7.7,0,0,1,1.268,1.177,12.516,12.516,0,0,1,1.041,1.72,10.712,10.712,0,0,1,.634,2.31Zm-4.212,0a11.02,11.02,0,0,0-.452-1.086,3.248,3.248,0,0,0-1.72-1.631,3.766,3.766,0,0,0-2.808,0,2.328,2.328,0,0,0-1.041.679,3.787,3.787,0,0,0-.724.952,5.048,5.048,0,0,0-.363,1.086Zm21.054-5.116v3.759H151.08V417.4H147.1V399.7a4.315,4.315,0,0,1,.724-2.715,4.491,4.491,0,0,1,1.586-1.5,5.575,5.575,0,0,1,2.354-.77h4.709v3.8H153.3a2.511,2.511,0,0,0-1.267.272,2.732,2.732,0,0,0-.634.589,1.558,1.558,0,0,0-.318.906V401.6Zm7.969-1.222V417.4h-4.119V400.379Zm-4.119-3.8v-1.086c.045-.272.091-.452.227-.543a.767.767,0,0,1,.588-.18,16.15,16.15,0,0,1,2.446,0,.821.821,0,0,1,.634.18.771.771,0,0,1,.18.543c0,.227.045.589.045,1.086s-.045.861-.045,1.132a.73.73,0,0,1-.18.5,1.045,1.045,0,0,1-.634.227h-2.446a1.012,1.012,0,0,1-.588-.227.735.735,0,0,1-.227-.5v-1.132Zm13.81,3.351a6.737,6.737,0,0,0,.724.045,11.451,11.451,0,0,1,1.449.271,8.753,8.753,0,0,1,1.767.816,6.152,6.152,0,0,1,1.765,1.54,7.423,7.423,0,0,1,1.313,2.535,11.172,11.172,0,0,1,.543,3.759V417.4h-4.119v-8.512a8.3,8.3,0,0,0-.136-1.5,3.736,3.736,0,0,0-.5-1.4,2.987,2.987,0,0,0-1.041-1.086,3.4,3.4,0,0,0-1.765-.407,3.29,3.29,0,0,0-1.767.407,3,3,0,0,0-1.041,1.086,3.8,3.8,0,0,0-.543,1.4,8.3,8.3,0,0,0-.136,1.5V417.4H164.71v-8.512a12.56,12.56,0,0,1,.5-3.759,8.341,8.341,0,0,1,1.358-2.535,6.69,6.69,0,0,1,1.72-1.54,9.014,9.014,0,0,1,1.811-.816,11.451,11.451,0,0,1,1.449-.271c.363,0,.634-.045.725-.045Zm25.4,17.478h-3.985v-2.354l.725-.95a5.387,5.387,0,0,1-1.449,2.128,5.857,5.857,0,0,1-1.676,1.086,8.087,8.087,0,0,1-2.037.407,7.334,7.334,0,0,1-3.669-.906,6.05,6.05,0,0,1-1.358-1.041,5.787,5.787,0,0,1-1.177-1.538,9.449,9.449,0,0,1-.861-2.265,14.927,14.927,0,0,1,0-6.113,9.532,9.532,0,0,1,.906-2.263,6.515,6.515,0,0,1,1.268-1.584,6.8,6.8,0,0,1,1.449-1.041,9,9,0,0,1,4.03-1.041,9.353,9.353,0,0,1,3.576.634,6.1,6.1,0,0,1,2.445,1.765,7.673,7.673,0,0,1,1.4,2.853,15.678,15.678,0,0,1,.407,3.759Zm-7.833-13.493a3.6,3.6,0,0,0-1.992.5,3.16,3.16,0,0,0-1.177,1.268,4.924,4.924,0,0,0-.543,1.631,10.14,10.14,0,0,0-.136,1.585,10.7,10.7,0,0,0,.136,1.629,4.923,4.923,0,0,0,.543,1.631,3.471,3.471,0,0,0,1.177,1.267,3.585,3.585,0,0,0,1.992.5,3.7,3.7,0,0,0,1.992-.5,3.9,3.9,0,0,0,1.177-1.267,4.924,4.924,0,0,0,.543-1.631,10.705,10.705,0,0,0,.136-1.629,11.546,11.546,0,0,0-.136-1.767,4.017,4.017,0,0,0-.5-1.629,2.822,2.822,0,0,0-1.132-1.177,4.608,4.608,0,0,0-2.083-.407Zm17.432-3.985c.091,0,.318.045.725.045a13.661,13.661,0,0,1,1.493.271,9.985,9.985,0,0,1,1.767.816,5.481,5.481,0,0,1,1.72,1.54,8.34,8.34,0,0,1,1.358,2.535,12.56,12.56,0,0,1,.5,3.759V417.4h-4.075v-8.512a8.3,8.3,0,0,0-.136-1.5,4.715,4.715,0,0,0-.5-1.4,3.406,3.406,0,0,0-1.041-1.086,3.462,3.462,0,0,0-1.811-.407,2.9,2.9,0,0,0-2.807,1.494,4.714,4.714,0,0,0-.5,1.4,8.3,8.3,0,0,0-.136,1.5V417.4h-4.075v-8.512a11.268,11.268,0,0,1,.5-3.759,8.3,8.3,0,0,1,1.313-2.535,6.152,6.152,0,0,1,1.765-1.54,10.036,10.036,0,0,1,1.767-.816,13.119,13.119,0,0,1,1.449-.271c.407,0,.634-.045.724-.045Zm25.266,6.836h-4.166a4.23,4.23,0,0,0-.407-1.041,3.668,3.668,0,0,0-.679-.95,2.7,2.7,0,0,0-1.041-.634,4.146,4.146,0,0,0-1.4-.225,3.881,3.881,0,0,0-2.038.5,3.379,3.379,0,0,0-1.131,1.268,4.926,4.926,0,0,0-.545,1.631,10.338,10.338,0,0,0-.136,1.585,10.912,10.912,0,0,0,.136,1.629,4.926,4.926,0,0,0,.545,1.631,3.748,3.748,0,0,0,1.131,1.267,3.865,3.865,0,0,0,2.038.5,3.339,3.339,0,0,0,2.446-.859,5.043,5.043,0,0,0,1.131-2.038h4.121a10.429,10.429,0,0,1-.634,2.354,9.736,9.736,0,0,1-1.041,1.676,6.226,6.226,0,0,1-1.222,1.222,10.273,10.273,0,0,1-1.359.77,8.655,8.655,0,0,1-3.441.679,8.8,8.8,0,0,1-4.03-.906,9.638,9.638,0,0,1-1.449-1.041,6.072,6.072,0,0,1-1.268-1.538,9.449,9.449,0,0,1-.906-2.265,14.927,14.927,0,0,1,0-6.113,9.465,9.465,0,0,1,.906-2.263,7.726,7.726,0,0,1,1.268-1.584,6.025,6.025,0,0,1,1.493-1.041,8.807,8.807,0,0,1,3.985-1.041,9.53,9.53,0,0,1,3.441.77,10.92,10.92,0,0,1,1.359.815,6.281,6.281,0,0,1,1.222,1.224,10.166,10.166,0,0,1,1.041,1.72,10.7,10.7,0,0,1,.634,2.308Zm17.839-.045c.046.363.091.679.136,1.041,0,.363.046.725.046,1.133v.634H238.785a9.616,9.616,0,0,0,.181,1.131,5.648,5.648,0,0,0,.316,1.177,4.661,4.661,0,0,0,1.133,1.54,3.291,3.291,0,0,0,2.174.679,3.083,3.083,0,0,0,2.128-.679,4.241,4.241,0,0,0,1.177-1.54h4.346a8.253,8.253,0,0,1-.77,2.038,7.831,7.831,0,0,1-1.041,1.493,5.62,5.62,0,0,1-1.267,1.088,12.5,12.5,0,0,1-1.313.679,8.855,8.855,0,0,1-3.26.588,8.607,8.607,0,0,1-3.985-.906,9.935,9.935,0,0,1-1.493-1.041,7.186,7.186,0,0,1-1.268-1.538,7.881,7.881,0,0,1-.861-2.265,13.119,13.119,0,0,1,0-6.113,7.889,7.889,0,0,1,.861-2.263,6.477,6.477,0,0,1,1.268-1.584,6,6,0,0,1,1.493-1.041,8.657,8.657,0,0,1,3.985-1.041,9.53,9.53,0,0,1,3.441.77,10.9,10.9,0,0,1,1.358.815,6.257,6.257,0,0,1,1.268,1.177,7.294,7.294,0,0,1,1.041,1.72,8.649,8.649,0,0,1,.679,2.31Zm-4.255,0a5.335,5.335,0,0,0-.407-1.086,3.68,3.68,0,0,0-.68-.952,2.328,2.328,0,0,0-1.041-.679,3.762,3.762,0,0,0-2.807,0,2.328,2.328,0,0,0-1.041.679,2.973,2.973,0,0,0-.725.952,5.333,5.333,0,0,0-.407,1.086Z" transform="translate(9.964 3.861)" fill="#fff"/><path d="M86.7,420.7H85.616v-8.06H86.7Zm8.15,0H93.767l-4.075-6.2v6.2H88.651v-8.06h1.041l4.075,6.249v-6.249h1.086Zm7.29-7.2H99.517v7.2H98.476v-7.2H95.895v-.859h6.249Zm5.75,3.487h-3.487v2.853h4.03v.861h-5.116v-8.06h5.072v.859h-3.985v2.628h3.487Zm4.845.454h-1.9v3.26H109.75v-8.06h2.671a3.093,3.093,0,0,1,2.083.634,2.194,2.194,0,0,1,.77,1.811,2.261,2.261,0,0,1-.407,1.313,2.629,2.629,0,0,1-1.131.815l1.856,3.441v.046h-1.133Zm-1.9-.861h1.631a1.859,1.859,0,0,0,1.268-.407,1.344,1.344,0,0,0,.452-1.086,1.474,1.474,0,0,0-.452-1.177,1.776,1.776,0,0,0-1.268-.409h-1.631Zm12.09,4.121h-1.041l-4.075-6.2v6.2h-1.041v-8.06h1.041l4.075,6.249v-6.249h1.041Zm6.429-2.129H126l-.768,2.129h-1.088l3.08-8.06h.906l3.078,8.06h-1.086Zm-3.033-.859h2.717l-1.359-3.758Zm10.867-4.212h-2.626v7.2h-1.041v-7.2H130.94v-.859h6.249Zm2.31,7.2h-1.041v-8.06H139.5Zm8.15-3.758a5.183,5.183,0,0,1-.407,2.083,3.1,3.1,0,0,1-2.808,1.811,3.2,3.2,0,0,1-1.72-.5,3.253,3.253,0,0,1-1.131-1.313,4.821,4.821,0,0,1-.409-2.038v-.543a4.889,4.889,0,0,1,.409-2.083A3.054,3.054,0,0,1,142.712,413a3,3,0,0,1,1.676-.454,2.917,2.917,0,0,1,2.853,1.811,4.889,4.889,0,0,1,.407,2.083Zm-1.041-.543a3.663,3.663,0,0,0-.588-2.174,1.8,1.8,0,0,0-1.631-.77,1.87,1.87,0,0,0-1.585.77,3.965,3.965,0,0,0-.589,2.128v.589a3.853,3.853,0,0,0,.589,2.172,1.933,1.933,0,0,0,1.629.816,1.874,1.874,0,0,0,1.586-.77,3.972,3.972,0,0,0,.588-2.129Zm8.83,4.3H154.4l-4.076-6.2v6.2h-1.086v-8.06h1.086l4.076,6.249v-6.249h1.041Zm6.429-2.129h-3.351l-.77,2.129h-1.086l3.08-8.06h.9l3.08,8.06h-1.086Zm-3.033-.859h2.715l-1.358-3.758Zm7.063,2.128h3.8v.861h-4.891v-8.06H165.9Zm10.188-2.717a5.11,5.11,0,0,1-1.993-1,1.755,1.755,0,0,1-.588-1.4,2.016,2.016,0,0,1,.724-1.584,3.16,3.16,0,0,1,1.993-.589,3.271,3.271,0,0,1,1.493.318,2.3,2.3,0,0,1,1,.859,2.543,2.543,0,0,1,.361,1.224h-1.086a1.438,1.438,0,0,0-.452-1.132,1.9,1.9,0,0,0-1.313-.407,2.051,2.051,0,0,0-1.224.316,1.373,1.373,0,0,0-.452,1,.961.961,0,0,0,.452.815,3.726,3.726,0,0,0,1.4.634,6.7,6.7,0,0,1,1.585.634,2.657,2.657,0,0,1,.815.77,2.138,2.138,0,0,1,.272,1.086,1.95,1.95,0,0,1-.724,1.585,3.651,3.651,0,0,1-2.083.589,4.433,4.433,0,0,1-1.54-.318,2.724,2.724,0,0,1-1.086-.906,1.988,1.988,0,0,1-.407-1.222h1.086a1.376,1.376,0,0,0,.543,1.133,2.736,2.736,0,0,0,2.717.089,1.2,1.2,0,0,0,.452-.95,1.081,1.081,0,0,0-.407-.906,4.22,4.22,0,0,0-1.538-.634Zm8.919-.136h-3.487v2.853h4.075v.861H180.43v-8.06H185.5v.859h-3.985v2.628H185Zm4.845.454h-1.9v3.26H186.9v-8.06h2.672a3.179,3.179,0,0,1,2.083.634,2.169,2.169,0,0,1,.724,1.811,2.261,2.261,0,0,1-.407,1.313,2.387,2.387,0,0,1-1.131.815l1.9,3.441v.046h-1.132Zm-1.9-.861h1.631a1.859,1.859,0,0,0,1.268-.407,1.344,1.344,0,0,0,.452-1.086,1.618,1.618,0,0,0-.407-1.177,1.9,1.9,0,0,0-1.313-.409h-1.631Zm8.514,2.717,2.263-6.656H199.9l-2.989,8.06h-.95l-2.989-8.06h1.177Zm5.659,1.4h-1.041v-8.06h1.041ZM210,418.163a2.869,2.869,0,0,1-.95,1.947,3.184,3.184,0,0,1-2.128.725,2.84,2.84,0,0,1-2.265-1.041,4.049,4.049,0,0,1-.859-2.763v-.768a4.4,4.4,0,0,1,.407-1.947A2.715,2.715,0,0,1,205.332,413a3,3,0,0,1,1.676-.454,3.039,3.039,0,0,1,2.083.679A3.27,3.27,0,0,1,210,415.22H208.91a2.366,2.366,0,0,0-.589-1.4,2.188,2.188,0,0,0-2.9.316,3.755,3.755,0,0,0-.588,2.174v.77a3.258,3.258,0,0,0,.588,2.083,1.666,1.666,0,0,0,1.5.77,1.783,1.783,0,0,0,1.992-1.767Zm6.022-1.177h-3.532v2.853h4.075v.861h-5.116v-8.06h5.071v.859h-4.03v2.628h3.532Zm4.257.136a4.506,4.506,0,0,1-1.992-1,1.658,1.658,0,0,1-.634-1.4,2.058,2.058,0,0,1,.77-1.584,2.935,2.935,0,0,1,1.946-.589,3.035,3.035,0,0,1,1.5.318,2.066,2.066,0,0,1,1,.859,2.114,2.114,0,0,1,.363,1.224h-1.041a1.468,1.468,0,0,0-.5-1.132,1.824,1.824,0,0,0-1.313-.407,2.049,2.049,0,0,0-1.222.316,1.333,1.333,0,0,0-.407,1,1.029,1.029,0,0,0,.407.815,3.726,3.726,0,0,0,1.4.634,5.989,5.989,0,0,1,1.585.634,2.888,2.888,0,0,1,.861.77,2.154,2.154,0,0,1,.272,1.086,1.992,1.992,0,0,1-.77,1.585,3.609,3.609,0,0,1-2.038.589,4.473,4.473,0,0,1-1.585-.318,3.072,3.072,0,0,1-1.086-.906,1.988,1.988,0,0,1-.407-1.222h1.086a1.376,1.376,0,0,0,.543,1.133,2.3,2.3,0,0,0,1.449.407,2.019,2.019,0,0,0,1.268-.318,1.218,1.218,0,0,0,.045-1.856,3.935,3.935,0,0,0-1.493-.634Z" transform="translate(37.258 14.511)" fill="#fff"/></g></svg>