<svg xmlns="http://www.w3.org/2000/svg" xmlns:xlink="http://www.w3.org/1999/xlink" viewBox="0 0 153 100"><path fill="whitesmoke" d="M141.54 0l-130.08 0c-6.32,0 -11.46,5.12 -11.46,11.44l0 77.14c0,6.32 5.14,11.44 11.46,11.44l130.08 0c6.32,0 11.46,-5.12 11.46,-11.44l0 -77.14c0,-6.32 -5.14,-11.44 -11.46,-11.44z"/><path fill="#FF4B55" d="M0.64 7.7l151.74 0c-1.56,-4.48 -5.82,-7.7 -10.82,-7.7l-130.08 0c-5.02,0 -9.28,3.22 -10.82,7.7zm-0.64 15.38l153 0 0 -7.7 -153 0 0 7.7zm0 15.38l153 0 0 -7.7 -153 0 0 7.7zm0 12.76c0,1.46 1.18,2.64 2.64,2.64l150.36 0 0 -7.7 -153 0 0 5.06zm0 18.02l153 0 0 -7.7 -153 0 0 7.7zm0 15.38l153 0 0 -7.7 -153 0 0 7.7zm152.38 7.7l-151.74 0c1.56,4.48 5.82,7.7 10.82,7.7l130.08 -0c5.02,0 9.28,-3.22 10.82,-7.7z"/><path fill="#41479B" d="M2.64 53.84l65.94 0c1.46,0 2.64,-1.18 2.64,-2.64l0 -48.58c0,-1.46 -1.18,-2.64 -2.64,-2.64l-57.12 0c-6.32,0 -11.46,5.12 -11.46,11.44l0 39.78c0,1.46 1.18,2.64 2.64,2.64z"/><g id="b"><path id="a" fill="whitesmoke" d="M7.4 6l0.58 1.76 1.84 0.02c0.24,0 0.34,0.3 0.14,0.44l-1.48 1.1 0.56 1.76c0.08,0.22 -0.18,0.42 -0.38,0.28l-1.5 -1.08 -1.5 1.08c-0.2,0.14 -0.46,-0.04 -0.38,-0.28l0.56 -1.76 -1.48 -1.1c-0.2,-0.14 -0.1,-0.44 0.14,-0.44l1.84 -0.02 0.58 -1.76c0.08,-0.22 0.4,-0.22 0.48,-0z"/><use transform="translate(0 9.16)" xlink:href="#a"/><use transform="translate(0 18.32)" xlink:href="#a"/><use transform="translate(0 27.48)" xlink:href="#a"/><use transform="translate(0 36.64)" xlink:href="#a"/></g><use transform="translate(14.22 0)" xlink:href="#b"/><use transform="translate(28.44 0)" xlink:href="#b"/><use transform="translate(42.66 0)" xlink:href="#b"/><use transform="translate(56.88 0)" xlink:href="#b"/><g id="c"><use transform="translate(7.12 4.5)" xlink:href="#a"/><use transform="translate(7.12 13.66)" xlink:href="#a"/><use transform="translate(7.12 22.82)" xlink:href="#a"/><use transform="translate(7.12 31.98)" xlink:href="#a"/></g><use transform="translate(14.22 0)" xlink:href="#c"/><use transform="translate(28.44 0)" xlink:href="#c"/><use transform="translate(42.66 0)" xlink:href="#c"/></svg>