<svg xmlns="http://www.w3.org/2000/svg" viewBox="0 0 261 53"><defs><linearGradient id="id5" x1="76.91" x2="267.83" y1="24.87" y2="24.87" gradientUnits="userSpaceOnUse"><stop stop-color="#FF0084"/><stop offset=".144" stop-color="#FB0086"/><stop offset=".293" stop-color="#EE008C"/><stop offset=".444" stop-color="#DA0097"/><stop offset=".597" stop-color="#BD00A6"/><stop offset=".751" stop-color="#9700B9"/><stop offset=".905" stop-color="#6A00D0"/><stop offset="1" stop-color="#4A00E0"/></linearGradient></defs><path fill="url(#id5)" d="M99.87 17.62c-1.08,0.25 -2.01,0.51 -2.8,0.79l0 0 0 14.76 4.42 0 0 -11.91c0.2,-0.06 0.49,-0.11 0.87,-0.16l0 0c0.39,-0.05 0.72,-0.07 0.99,-0.07l0 0c0.61,0 1.19,0.05 1.72,0.16l0 0c0.53,0.11 1,0.21 1.39,0.31l0 0 0.74 -3.65c-0.24,-0.1 -0.52,-0.18 -0.86,-0.25l0 0c-0.34,-0.07 -0.67,-0.13 -1.01,-0.18l0 0c-0.34,-0.05 -0.67,-0.09 -1.01,-0.12l0 0c-0.34,-0.03 -0.62,-0.04 -0.86,-0.04l0 0c-1.32,0 -2.52,0.12 -3.6,0.37m0 0l0 0 0 0zm-16.6 -4.76c-1.26,0.47 -2.35,1.17 -3.27,2.09l0 0c-0.93,0.92 -1.66,2.04 -2.19,3.36l0 0c-0.53,1.32 -0.8,2.85 -0.8,4.56l0 0c0,1.7 0.24,3.21 0.73,4.53l0 0c0.48,1.32 1.17,2.44 2.06,3.35l0 0c0.89,0.91 1.96,1.6 3.22,2.07l0 0c1.25,0.47 2.65,0.71 4.19,0.71l0 0c1.8,0 3.31,-0.12 4.53,-0.37l0 0c1.22,-0.25 2.11,-0.48 2.67,-0.7l0 0 0 -10.17 -4.62 0 0 7.14c-0.28,0.06 -0.6,0.1 -0.96,0.12l0 0c-0.37,0.02 -0.81,0.03 -1.32,0.03l0 0c-0.95,0 -1.78,-0.16 -2.49,-0.49l0 0c-0.71,-0.33 -1.3,-0.79 -1.78,-1.38l0 0c-0.47,-0.59 -0.83,-1.3 -1.07,-2.12l0 0c-0.24,-0.82 -0.36,-1.73 -0.36,-2.74l0 0c0,-2.07 0.48,-3.71 1.44,-4.9l0 0c0.96,-1.2 2.51,-1.79 4.67,-1.79l0 0c0.97,0 1.86,0.12 2.68,0.37l0 0c0.82,0.25 1.55,0.54 2.18,0.87l0 0 1.33 -3.7c-0.16,-0.1 -0.42,-0.24 -0.79,-0.42l0 0c-0.37,-0.18 -0.83,-0.35 -1.39,-0.52l0 0c-0.56,-0.17 -1.24,-0.32 -2.02,-0.44l0 0c-0.78,-0.13 -1.66,-0.19 -2.62,-0.19l0 0c-1.42,0 -2.76,0.24 -4.02,0.71m0 0l0 0 0 0zm29.96 4.37c-0.5,0.05 -0.98,0.11 -1.44,0.18l0 0c-0.46,0.07 -0.87,0.15 -1.26,0.24l0 0c-0.39,0.09 -0.71,0.17 -0.96,0.25l0 0 -0.84 3.73c0.53,-0.2 2.57,-0.52 3.3,-0.63l0 0c0.73,-0.11 1.47,-0.16 2.22,-0.16l0 0c1.13,0 1.92,0.23 2.37,0.68l0 0c0.45,0.45 0.68,1.06 0.68,1.81l0 0 0 0.41c-0.28,-0.08 -0.64,-0.14 -1.08,-0.19l0 0c-0.44,-0.05 -0.95,-0.07 -1.53,-0.07l0 0c-0.85,0 -1.67,0.08 -2.46,0.25l0 0c-0.79,0.17 -1.49,0.44 -2.1,0.82l0 0c-0.61,0.38 -1.1,0.88 -1.47,1.51l0 0c-0.37,0.63 -0.55,1.4 -0.55,2.31l0 0c0,0.95 0.16,1.75 0.47,2.4l0 0c0.32,0.65 0.77,1.18 1.36,1.59l0 0c0.59,0.41 1.3,0.7 2.12,0.87l0 0c0.82,0.18 1.73,0.27 2.74,0.27l0 0c1.6,0 2.96,-0.09 4.09,-0.28l0 0c1.13,-0.19 2,-0.35 2.64,-0.49l0 0 0 -9.19c0,-0.97 -0.11,-1.85 -0.33,-2.64l0 0c-0.22,-0.79 -0.59,-1.46 -1.11,-2.02l0 0c-0.52,-0.55 -1.22,-0.98 -2.09,-1.27l0 0c-0.87,-0.3 -1.96,-0.44 -3.26,-0.44l0 0c-0.51,0 -1.02,0.03 -1.53,0.07m-0.03 12.45c-0.46,-0.27 -0.7,-0.75 -0.7,-1.44l0 0c0,-0.36 0.08,-0.65 0.24,-0.89l0 0c0.16,-0.24 0.37,-0.42 0.65,-0.56l0 0c0.28,-0.14 0.6,-0.23 0.96,-0.28l0 0c0.37,-0.05 0.76,-0.07 1.17,-0.07l0 0c0.3,0 0.62,0.02 0.98,0.06l0 0c0.36,0.04 0.62,0.08 0.8,0.12l0 0 0 3.35c-0.24,0.04 -0.55,0.07 -0.95,0.09l0 0c-0.4,0.02 -0.81,0.03 -1.25,0.03l0 0c-0.81,0 -1.45,-0.13 -1.91,-0.4m0 0l0 0 0 0zm13.91 -12.18c-1.19,0.19 -2.15,0.39 -2.9,0.61l0 0 0 15.05 4.42 0 0 -12.03c0.28,-0.04 0.59,-0.07 0.95,-0.1l0 0c0.36,-0.03 0.69,-0.04 1.01,-0.04l0 0c1.03,0 1.73,0.3 2.1,0.89l0 0c0.37,0.59 0.56,1.6 0.56,3.02l0 0 0 8.27 4.42 0 0 -8.8c0,-1.07 -0.11,-2.03 -0.33,-2.9l0 0c-0.22,-0.87 -0.58,-1.62 -1.1,-2.25l0 0c-0.51,-0.63 -1.21,-1.12 -2.09,-1.47l0 0c-0.88,-0.35 -1.98,-0.52 -3.3,-0.52l0 0c-1.3,0 -2.55,0.09 -3.73,0.28zm23.29 -6.62l0 7.05c-0.49,-0.22 -0.98,-0.39 -1.47,-0.5l0 0c-0.48,-0.12 -1.03,-0.18 -1.64,-0.18l0 0c-1.11,0 -2.09,0.19 -2.95,0.56l0 0c-0.86,0.38 -1.59,0.92 -2.18,1.63l0 0c-0.59,0.71 -1.05,1.58 -1.36,2.59l0 0c-0.32,1.02 -0.47,2.16 -0.47,3.42l0 0c0,1.24 0.18,2.37 0.55,3.36l0 0c0.37,1 0.89,1.85 1.59,2.55l0 0c0.69,0.7 1.54,1.24 2.55,1.62l0 0c1.01,0.37 2.15,0.56 3.44,0.56l0 0c0.53,0 1.09,-0.02 1.67,-0.07l0 0c0.58,-0.05 1.16,-0.11 1.72,-0.19l0 0c0.56,-0.08 1.1,-0.17 1.62,-0.28l0 0c0.51,-0.11 0.97,-0.22 1.36,-0.34l0 0 0 -22.49 -4.42 0.71zm-4.65 17.66c-0.61,-0.83 -0.92,-1.93 -0.92,-3.29l0 0c0,-2.85 1.05,-4.27 3.14,-4.27l0 0c0.45,0 0.9,0.06 1.35,0.18l0 0c0.44,0.12 0.81,0.27 1.08,0.44l0 0 0 8.03c-0.22,0.04 -0.49,0.07 -0.83,0.1l0 0c-0.34,0.03 -0.7,0.04 -1.1,0.04l0 0c-1.21,0 -2.11,-0.41 -2.73,-1.24zm33.81 -15.93c-0.36,0.65 -0.77,1.46 -1.23,2.42l0 0c-0.47,0.96 -0.95,2 -1.46,3.11l0 0c-0.51,1.12 -1.01,2.26 -1.5,3.42l0 0c-0.5,1.17 -0.96,2.26 -1.4,3.29l0 0c-0.44,-1.03 -0.9,-2.12 -1.4,-3.29l0 0c-0.5,-1.17 -1,-2.31 -1.5,-3.42l0 0c-0.51,-1.12 -0.99,-2.15 -1.46,-3.11l0 0c-0.47,-0.96 -0.88,-1.76 -1.23,-2.42l0 0 -4.42 0c-0.2,1.36 -0.38,2.89 -0.55,4.58l0 0c-0.17,1.69 -0.32,3.45 -0.44,5.27l0 0c-0.13,1.83 -0.25,3.66 -0.36,5.5l0 0c-0.11,1.84 -0.2,3.57 -0.28,5.19l0 0 4.5 0c0.06,-2 0.14,-4.17 0.24,-6.52l0 0c0.1,-2.35 0.25,-4.72 0.44,-7.11l0 0c0.36,0.83 0.75,1.75 1.19,2.76l0 0c0.44,1.01 0.87,2.02 1.29,3.02l0 0c0.43,1.01 0.84,1.97 1.23,2.89l0 0c0.4,0.92 0.73,1.7 1.01,2.36l0 0 3.23 0c0.28,-0.65 0.61,-1.44 1.01,-2.36l0 0c0.4,-0.92 0.81,-1.88 1.23,-2.89l0 0c0.43,-1.01 0.86,-2.02 1.29,-3.02l0 0c0.44,-1.01 0.83,-1.93 1.19,-2.76l0 0c0.2,2.39 0.35,4.76 0.44,7.11l0 0c0.1,2.35 0.18,4.52 0.24,6.52l0 0 4.5 0c-0.08,-1.62 -0.17,-3.35 -0.28,-5.19l0 0c-0.11,-1.84 -0.23,-3.67 -0.36,-5.5l0 0c-0.13,-1.83 -0.28,-3.59 -0.44,-5.27l0 0c-0.17,-1.69 -0.35,-3.22 -0.55,-4.58l0 0 -4.21 0zm13.11 5.13c-0.94,0.4 -1.75,0.95 -2.43,1.66l0 0c-0.68,0.71 -1.22,1.57 -1.6,2.58l0 0c-0.39,1.01 -0.58,2.12 -0.58,3.35l0 0c0,1.23 0.19,2.35 0.56,3.36l0 0c0.38,1.02 0.9,1.89 1.57,2.61l0 0c0.67,0.72 1.48,1.28 2.42,1.67l0 0c0.94,0.39 1.98,0.59 3.13,0.59l0 0c1.17,0 2.22,-0.2 3.16,-0.59l0 0c0.94,-0.4 1.74,-0.95 2.42,-1.67l0 0c0.67,-0.72 1.19,-1.59 1.54,-2.61l0 0c0.36,-1.02 0.53,-2.14 0.53,-3.36l0 0c0,-1.22 -0.19,-2.34 -0.56,-3.35l0 0c-0.38,-1.01 -0.9,-1.87 -1.57,-2.58l0 0c-0.67,-0.71 -1.48,-1.26 -2.42,-1.66l0 0c-0.94,-0.39 -1.97,-0.59 -3.1,-0.59l0 0c-1.11,0 -2.13,0.2 -3.07,0.59m0.73 10.83c-0.55,-0.8 -0.83,-1.88 -0.83,-3.25l0 0c0,-1.36 0.28,-2.44 0.83,-3.22l0 0c0.55,-0.78 1.33,-1.17 2.34,-1.17l0 0c1.01,0 1.78,0.39 2.33,1.17l0 0c0.54,0.78 0.82,1.85 0.82,3.22l0 0c0,1.36 -0.27,2.45 -0.82,3.25l0 0c-0.54,0.8 -1.32,1.2 -2.33,1.2l0 0c-1.01,0 -1.79,-0.4 -2.34,-1.2zm34.51 -10.89c-0.9,0.36 -1.69,0.88 -2.39,1.57l0 0c-0.69,0.69 -1.25,1.56 -1.67,2.59l0 0c-0.43,1.04 -0.64,2.25 -0.64,3.63l0 0c0,1.15 0.16,2.21 0.49,3.2l0 0c0.33,0.99 0.83,1.84 1.51,2.56l0 0c0.68,0.72 1.54,1.29 2.58,1.7l0 0c1.04,0.41 2.26,0.62 3.66,0.62l0 0c0.55,0 1.11,-0.03 1.66,-0.09l0 0c0.55,-0.06 1.07,-0.13 1.56,-0.22l0 0c0.48,-0.09 0.92,-0.19 1.32,-0.31l0 0c0.39,-0.12 0.71,-0.24 0.95,-0.36l0 0 -0.59 -3.59c-0.49,0.22 -1.13,0.4 -1.91,0.55l0 0c-0.78,0.15 -1.58,0.22 -2.39,0.22l0 0c-1.26,0 -2.27,-0.27 -3.02,-0.8l0 0c-0.75,-0.53 -1.18,-1.25 -1.27,-2.16l0 0 10.02 0c0.02,-0.24 0.04,-0.51 0.06,-0.81l0 0c0.02,-0.31 0.03,-0.59 0.03,-0.84l0 0c0,-2.63 -0.64,-4.62 -1.93,-5.97l0 0c-1.28,-1.35 -3.03,-2.03 -5.25,-2.03l0 0c-0.95,0 -1.87,0.18 -2.77,0.53m0.12 4.99c0.13,-0.37 0.31,-0.69 0.55,-0.96l0 0c0.24,-0.28 0.53,-0.5 0.89,-0.67l0 0c0.36,-0.17 0.78,-0.25 1.27,-0.25l0 0c0.51,0 0.94,0.09 1.29,0.27l0 0c0.35,0.18 0.63,0.41 0.86,0.68l0 0c0.23,0.28 0.39,0.59 0.5,0.95l0 0c0.11,0.36 0.17,0.72 0.19,1.1l0 0 -5.84 0c0.06,-0.37 0.15,-0.75 0.28,-1.11m-0 0l0 0 0 0zm23.01 -4.26c-1.09,0.85 -1.63,2.01 -1.63,3.47l0 0c0,0.75 0.11,1.39 0.33,1.93l0 0c0.22,0.53 0.52,0.99 0.92,1.38l0 0c0.4,0.38 0.87,0.72 1.44,0.99l0 0c0.56,0.28 1.19,0.54 1.88,0.8l0 0c0.89,0.34 1.55,0.64 1.99,0.9l0 0c0.43,0.27 0.65,0.58 0.65,0.93l0 0c0,0.45 -0.17,0.76 -0.5,0.92l0 0c-0.34,0.16 -0.91,0.24 -1.72,0.24l0 0c-0.77,0 -1.5,-0.02 -2.31,-0.04l0 0c-0.98,-0.02 -1.74,-0.04 -2.56,-0.08l0 0 -0.62 3.59c0.7,0.01 1.12,0.01 2.06,0l0 0c0.95,-0.01 2,0 3.38,0l0 0c2.11,0 3.76,-0.27 4.91,-1.06l0 0c1.16,-0.79 1.73,-1.95 1.73,-3.49l0 0c0,-0.65 -0.07,-1.22 -0.22,-1.71l0 0c-0.15,-0.49 -0.41,-0.94 -0.77,-1.35l0 0c-0.37,-0.4 -0.86,-0.78 -1.5,-1.13l0 0c-0.63,-0.35 -1.43,-0.7 -2.4,-1.06l0 0c-0.47,-0.18 -0.86,-0.34 -1.17,-0.49l0 0c-0.31,-0.15 -0.55,-0.29 -0.73,-0.42l0 0c-0.18,-0.13 -0.3,-0.26 -0.36,-0.4l0 0c-0.06,-0.14 -0.09,-0.3 -0.09,-0.47l0 0c0,-0.77 0.69,-1.16 2.07,-1.16l0 0c0.75,0 1.43,0.07 2.03,0.21l0 0c0.6,0.14 1.16,0.3 1.67,0.47l0 0 0.77 -3.44c-0.51,-0.2 -1.21,-0.38 -2.08,-0.55l0 0c-0.87,-0.17 -1.78,-0.25 -2.73,-0.25l0 0c-1.9,0 -3.39,0.43 -4.47,1.27m0 0l0 0 0 0zm-10.49 -7.56l0 17.16c0,0.83 0.08,1.58 0.25,2.24l0 0c0.17,0.66 0.48,1.22 0.95,1.69l0 0c0.46,0.46 1.1,0.83 1.9,1.08l0 0c0.8,0.26 1.84,0.4 3.13,0.42l0 0 0.62 -3.65c-0.53,-0.04 -0.96,-0.13 -1.27,-0.27l0 0c-0.32,-0.14 -0.56,-0.32 -0.73,-0.53l0 0c-0.17,-0.22 -0.28,-0.48 -0.34,-0.8l0 0c-0.06,-0.32 -0.09,-0.67 -0.09,-1.07l0 0 0 -16.98 -4.42 0.71zm-24.42 0l0 7.05c-0.49,-0.22 -0.98,-0.39 -1.47,-0.5l0 0c-0.48,-0.12 -1.03,-0.18 -1.65,-0.18l0 0c-1.11,0 -2.09,0.19 -2.95,0.56l0 0c-0.86,0.38 -1.59,0.92 -2.18,1.63l0 0c-0.59,0.71 -1.05,1.58 -1.36,2.59l0 0c-0.32,1.02 -0.47,2.16 -0.47,3.42l0 0c0,1.24 0.18,2.37 0.55,3.36l0 0c0.37,1 0.89,1.85 1.59,2.55l0 0c0.69,0.7 1.54,1.24 2.55,1.62l0 0c1.01,0.37 2.15,0.56 3.44,0.56l0 0c0.53,0 1.09,-0.02 1.67,-0.07l0 0c0.58,-0.05 1.16,-0.11 1.72,-0.19l0 0c0.56,-0.08 1.1,-0.17 1.62,-0.28l0 0c0.51,-0.11 0.97,-0.22 1.36,-0.34l0 0 0 -22.49 -4.42 0.71zm-4.65 17.66c-0.61,-0.83 -0.92,-1.93 -0.92,-3.29l0 0c0,-2.84 1.05,-4.27 3.14,-4.27l0 0c0.45,0 0.9,0.06 1.35,0.18l0 0c0.44,0.12 0.8,0.27 1.08,0.44l0 0 0 8.03c-0.22,0.04 -0.49,0.07 -0.83,0.1l0 0c-0.34,0.03 -0.7,0.04 -1.1,0.04l0 0c-1.21,0 -2.11,-0.41 -2.73,-1.24z"/><path fill="white" d="M79.77 45.25c-0.43,0 -0.82,-0.07 -1.16,-0.2 -0.34,-0.13 -0.63,-0.33 -0.87,-0.58 -0.24,-0.26 -0.42,-0.57 -0.55,-0.94 -0.13,-0.37 -0.19,-0.8 -0.19,-1.28 0,-0.48 0.07,-0.91 0.22,-1.28 0.15,-0.37 0.35,-0.68 0.6,-0.94 0.25,-0.26 0.55,-0.45 0.9,-0.58 0.34,-0.13 0.71,-0.2 1.1,-0.2 0.24,0 0.45,0.02 0.65,0.05 0.19,0.04 0.36,0.08 0.51,0.12 0.14,0.04 0.26,0.09 0.36,0.14 0.09,0.05 0.16,0.09 0.2,0.11l-0.31 0.85c-0.13,-0.08 -0.32,-0.16 -0.57,-0.24 -0.25,-0.07 -0.51,-0.11 -0.8,-0.11 -0.25,0 -0.48,0.04 -0.7,0.13 -0.22,0.09 -0.4,0.21 -0.56,0.39 -0.16,0.17 -0.28,0.39 -0.37,0.65 -0.09,0.26 -0.13,0.56 -0.13,0.9 0,0.3 0.03,0.58 0.1,0.84 0.07,0.25 0.18,0.47 0.32,0.66 0.14,0.19 0.33,0.33 0.55,0.43 0.22,0.1 0.49,0.15 0.8,0.15 0.37,0 0.67,-0.04 0.9,-0.11 0.23,-0.07 0.41,-0.14 0.54,-0.21l0.28 0.85c-0.07,0.04 -0.16,0.09 -0.27,0.13 -0.11,0.04 -0.25,0.09 -0.4,0.13 -0.16,0.04 -0.33,0.07 -0.52,0.1 -0.19,0.02 -0.4,0.04 -0.62,0.04zm2.73 -0.12l0 -5.74 3.69 0 0 0.89 -2.64 0 0 1.42 2.35 0 0 0.87 -2.35 0 0 1.68 2.84 0 0 0.89 -3.89 0zm6.55 -4.9c-0.27,0 -0.48,0.01 -0.65,0.03l0 1.96 0.51 0c0.5,0 0.89,-0.07 1.16,-0.21 0.27,-0.14 0.41,-0.41 0.41,-0.8 0,-0.19 -0.04,-0.35 -0.11,-0.47 -0.07,-0.13 -0.17,-0.23 -0.3,-0.3 -0.13,-0.07 -0.28,-0.12 -0.45,-0.15 -0.17,-0.03 -0.36,-0.05 -0.56,-0.05m-0.07 -0.9c0.83,0 1.47,0.15 1.92,0.46 0.44,0.3 0.67,0.78 0.67,1.43 0,0.34 -0.06,0.63 -0.18,0.87 -0.12,0.24 -0.29,0.44 -0.52,0.59 -0.23,0.15 -0.5,0.26 -0.83,0.34 -0.33,0.07 -0.7,0.11 -1.12,0.11l-0.52 0 0 2.02 -1.04 0 0 -5.66c0.24,-0.06 0.51,-0.09 0.81,-0.11 0.3,-0.02 0.57,-0.03 0.82,-0.03m0 0l0 0 0 0zm4.57 3.21l0 1.75c0.12,0.01 0.24,0.02 0.37,0.02 0.13,0.01 0.25,0.01 0.36,0.01 0.22,0 0.42,-0.01 0.6,-0.04 0.18,-0.03 0.34,-0.08 0.48,-0.15 0.14,-0.07 0.24,-0.16 0.32,-0.28 0.08,-0.12 0.12,-0.27 0.12,-0.45 0,-0.33 -0.12,-0.55 -0.36,-0.68 -0.24,-0.13 -0.57,-0.19 -0.99,-0.19l-0.92 0zm0 -0.82l0.74 0c0.4,0 0.71,-0.06 0.94,-0.17 0.23,-0.11 0.34,-0.32 0.34,-0.61 0,-0.28 -0.12,-0.47 -0.35,-0.59 -0.23,-0.12 -0.54,-0.17 -0.92,-0.17 -0.16,0 -0.3,0 -0.43,0.01 -0.12,0.01 -0.23,0.01 -0.32,0.02l0 1.51zm0.7 3.47c-0.3,0 -0.61,-0.01 -0.92,-0.03 -0.31,-0.02 -0.58,-0.06 -0.81,-0.12l0 -5.58c0.12,-0.02 0.25,-0.04 0.39,-0.06 0.14,-0.02 0.28,-0.03 0.42,-0.05 0.14,-0.01 0.29,-0.02 0.43,-0.03 0.14,-0.01 0.27,-0.01 0.4,-0.01 0.35,0 0.67,0.03 0.97,0.08 0.3,0.05 0.56,0.14 0.77,0.26 0.22,0.12 0.39,0.28 0.51,0.48 0.12,0.2 0.18,0.44 0.18,0.74 0,0.27 -0.06,0.5 -0.19,0.7 -0.13,0.19 -0.31,0.35 -0.54,0.46 0.35,0.12 0.6,0.29 0.77,0.51 0.17,0.23 0.25,0.51 0.25,0.86 0,0.59 -0.22,1.03 -0.65,1.33 -0.43,0.3 -1.09,0.44 -1.98,0.44m0 0l0 0 0 0zm3.71 -0.07l0 -5.74 1.04 0 0 3.81c0.19,-0.3 0.4,-0.62 0.64,-0.97 0.24,-0.34 0.49,-0.69 0.75,-1.03 0.26,-0.34 0.51,-0.67 0.77,-0.99 0.25,-0.32 0.49,-0.59 0.71,-0.82l0.85 0 0 5.74 -1.03 0 0 -4.11c-0.23,0.28 -0.48,0.59 -0.73,0.93 -0.26,0.34 -0.51,0.7 -0.76,1.07 -0.25,0.37 -0.49,0.73 -0.72,1.09 -0.23,0.36 -0.44,0.7 -0.63,1.02l-0.89 0zm8.68 0.12c-0.43,0 -0.82,-0.07 -1.16,-0.2 -0.34,-0.13 -0.63,-0.33 -0.87,-0.58 -0.24,-0.26 -0.42,-0.57 -0.55,-0.94 -0.13,-0.37 -0.19,-0.8 -0.19,-1.28 0,-0.48 0.07,-0.91 0.22,-1.28 0.15,-0.37 0.35,-0.68 0.6,-0.94 0.25,-0.26 0.55,-0.45 0.9,-0.58 0.34,-0.13 0.71,-0.2 1.1,-0.2 0.24,0 0.45,0.02 0.65,0.05 0.19,0.04 0.36,0.08 0.51,0.12 0.14,0.04 0.26,0.09 0.36,0.14 0.09,0.05 0.16,0.09 0.2,0.11l-0.31 0.85c-0.13,-0.08 -0.32,-0.16 -0.57,-0.24 -0.25,-0.07 -0.51,-0.11 -0.8,-0.11 -0.25,0 -0.48,0.04 -0.7,0.13 -0.22,0.09 -0.4,0.21 -0.56,0.39 -0.16,0.17 -0.28,0.39 -0.37,0.65 -0.09,0.26 -0.13,0.56 -0.13,0.9 0,0.3 0.03,0.58 0.1,0.84 0.07,0.25 0.18,0.47 0.32,0.66 0.14,0.19 0.33,0.33 0.55,0.43 0.22,0.1 0.49,0.15 0.8,0.15 0.37,0 0.67,-0.04 0.9,-0.11 0.23,-0.07 0.41,-0.14 0.54,-0.21l0.28 0.85c-0.07,0.04 -0.16,0.09 -0.27,0.13 -0.11,0.04 -0.25,0.09 -0.4,0.13 -0.16,0.04 -0.33,0.07 -0.52,0.1 -0.19,0.02 -0.4,0.04 -0.62,0.04zm5.52 -3c0,0.31 0.04,0.6 0.12,0.86 0.08,0.26 0.19,0.48 0.34,0.66 0.15,0.18 0.32,0.32 0.53,0.42 0.21,0.1 0.45,0.15 0.71,0.15 0.26,0 0.49,-0.05 0.7,-0.15 0.21,-0.1 0.39,-0.24 0.53,-0.42 0.15,-0.18 0.26,-0.4 0.34,-0.66 0.08,-0.26 0.12,-0.54 0.12,-0.86 0,-0.31 -0.04,-0.6 -0.12,-0.86 -0.08,-0.26 -0.19,-0.48 -0.34,-0.65 -0.15,-0.18 -0.32,-0.32 -0.53,-0.42 -0.21,-0.1 -0.45,-0.15 -0.7,-0.15 -0.27,0 -0.5,0.05 -0.71,0.15 -0.21,0.1 -0.39,0.24 -0.53,0.42 -0.15,0.18 -0.26,0.4 -0.34,0.65 -0.08,0.25 -0.12,0.54 -0.12,0.85m4.48 0c0,0.49 -0.07,0.93 -0.22,1.3 -0.15,0.38 -0.34,0.69 -0.6,0.94 -0.25,0.25 -0.55,0.44 -0.88,0.57 -0.34,0.13 -0.7,0.19 -1.08,0.19 -0.38,0 -0.74,-0.06 -1.08,-0.19 -0.34,-0.13 -0.64,-0.32 -0.89,-0.57 -0.25,-0.25 -0.45,-0.57 -0.6,-0.94 -0.15,-0.38 -0.22,-0.81 -0.22,-1.3 0,-0.49 0.07,-0.92 0.22,-1.3 0.15,-0.37 0.35,-0.69 0.61,-0.94 0.26,-0.25 0.55,-0.44 0.89,-0.57 0.34,-0.13 0.69,-0.19 1.07,-0.19 0.38,0 0.73,0.06 1.07,0.19 0.34,0.13 0.63,0.32 0.88,0.57 0.25,0.25 0.45,0.57 0.6,0.94 0.15,0.37 0.22,0.81 0.22,1.3zm2.53 2.03l0.21 0c0.08,0 0.16,-0 0.26,-0.01 0.17,-0.01 0.34,-0.02 0.49,-0.06 0.16,-0.03 0.3,-0.09 0.41,-0.16 0.12,-0.07 0.21,-0.17 0.28,-0.28 0.07,-0.12 0.1,-0.26 0.1,-0.44 0,-0.2 -0.04,-0.36 -0.11,-0.49 -0.07,-0.13 -0.18,-0.23 -0.32,-0.3 -0.14,-0.07 -0.31,-0.13 -0.5,-0.16 -0.2,-0.03 -0.42,-0.05 -0.67,-0.05l-0.53 0 0 1.92c0.05,0.01 0.1,0.01 0.16,0.01 0.06,0 0.13,0 0.2,0m-0.36 -4.01l0 1.21 0.56 0c0.41,0 0.78,0.03 1.11,0.1 0.33,0.07 0.6,0.17 0.83,0.32 0.23,0.15 0.4,0.34 0.52,0.57 0.12,0.23 0.18,0.52 0.18,0.86 0,0.62 -0.22,1.09 -0.68,1.4 -0.45,0.31 -1.09,0.46 -1.93,0.46 -0.23,0 -0.49,-0.01 -0.79,-0.04 -0.29,-0.02 -0.57,-0.07 -0.83,-0.13l0 -5.63 3.68 0 0 0.89 -2.66 0zm6.74 4.98c-0.43,0 -0.82,-0.07 -1.16,-0.2 -0.34,-0.13 -0.63,-0.33 -0.87,-0.58 -0.24,-0.26 -0.42,-0.57 -0.55,-0.94 -0.13,-0.37 -0.19,-0.8 -0.19,-1.28 0,-0.48 0.07,-0.91 0.22,-1.28 0.15,-0.37 0.35,-0.68 0.6,-0.94 0.25,-0.26 0.55,-0.45 0.9,-0.58 0.34,-0.13 0.71,-0.2 1.1,-0.2 0.24,0 0.45,0.02 0.65,0.05 0.19,0.04 0.36,0.08 0.51,0.12 0.14,0.04 0.26,0.09 0.36,0.14 0.09,0.05 0.16,0.09 0.2,0.11l-0.31 0.85c-0.13,-0.08 -0.32,-0.16 -0.57,-0.24 -0.25,-0.07 -0.51,-0.11 -0.8,-0.11 -0.25,0 -0.48,0.04 -0.7,0.13 -0.22,0.09 -0.4,0.21 -0.56,0.39 -0.16,0.17 -0.28,0.39 -0.37,0.65 -0.09,0.26 -0.13,0.56 -0.13,0.9 0,0.3 0.03,0.58 0.1,0.84 0.07,0.25 0.18,0.47 0.32,0.66 0.14,0.19 0.33,0.33 0.55,0.43 0.22,0.1 0.49,0.15 0.8,0.15 0.37,0 0.67,-0.04 0.9,-0.11 0.23,-0.07 0.41,-0.14 0.54,-0.21l0.28 0.85c-0.07,0.04 -0.16,0.09 -0.27,0.13 -0.11,0.04 -0.25,0.09 -0.4,0.13 -0.16,0.04 -0.33,0.07 -0.52,0.1 -0.19,0.02 -0.4,0.04 -0.62,0.04zm5.05 -4.97c-0.02,0.38 -0.04,0.76 -0.06,1.15 -0.02,0.39 -0.06,0.77 -0.12,1.13 -0.06,0.36 -0.14,0.7 -0.25,1.02 -0.11,0.32 -0.26,0.6 -0.46,0.84 -0.19,0.24 -0.43,0.43 -0.72,0.58 -0.29,0.14 -0.65,0.22 -1.06,0.23l-0.12 -0.91c0.2,-0.02 0.37,-0.06 0.52,-0.12 0.15,-0.06 0.28,-0.13 0.39,-0.22 0.11,-0.09 0.21,-0.2 0.29,-0.34 0.08,-0.14 0.15,-0.29 0.22,-0.48 0.15,-0.43 0.25,-0.97 0.3,-1.62 0.05,-0.65 0.07,-1.37 0.07,-2.16l3.59 -0 0 5.74 -1.05 0 0 -4.85 -1.53 0zm6.77 3.13c-0.14,0.31 -0.28,0.58 -0.43,0.81 -0.15,0.23 -0.31,0.42 -0.48,0.57 -0.17,0.15 -0.37,0.26 -0.58,0.33 -0.21,0.07 -0.45,0.11 -0.72,0.11 -0.16,0 -0.33,-0.02 -0.5,-0.05 -0.17,-0.03 -0.32,-0.07 -0.43,-0.12l0.19 -0.86c0.11,0.04 0.22,0.08 0.33,0.1 0.12,0.02 0.24,0.04 0.36,0.04 0.26,0 0.47,-0.06 0.64,-0.17 0.17,-0.12 0.33,-0.31 0.47,-0.57 -0.23,-0.38 -0.46,-0.75 -0.67,-1.13 -0.21,-0.38 -0.41,-0.75 -0.6,-1.11 -0.18,-0.36 -0.35,-0.71 -0.5,-1.04 -0.15,-0.33 -0.29,-0.64 -0.41,-0.91l1.17 0c0.09,0.23 0.19,0.47 0.3,0.73 0.11,0.26 0.24,0.53 0.37,0.8 0.13,0.28 0.27,0.56 0.41,0.84 0.14,0.29 0.29,0.57 0.43,0.86 0.2,-0.49 0.39,-1.02 0.57,-1.57 0.18,-0.56 0.35,-1.11 0.52,-1.67l1.13 0c-0.13,0.41 -0.27,0.79 -0.4,1.16 -0.13,0.36 -0.27,0.71 -0.4,1.04 -0.13,0.33 -0.26,0.64 -0.39,0.94 -0.13,0.3 -0.26,0.6 -0.39,0.89zm2.38 0.89c0.18,-0.28 0.37,-0.55 0.57,-0.82 0.2,-0.26 0.4,-0.51 0.62,-0.75 0.21,-0.23 0.42,-0.45 0.63,-0.64 -0.4,-0.43 -0.79,-0.88 -1.18,-1.35 -0.39,-0.47 -0.75,-0.92 -1.08,-1.35l1.25 -0c0.29,0.39 0.61,0.79 0.94,1.2 0.33,0.41 0.67,0.83 1.01,1.24l0 -2.44 1.02 0 0 2.44c0.34,-0.41 0.68,-0.83 1.02,-1.25 0.35,-0.42 0.65,-0.81 0.92,-1.19l1.24 0c-0.35,0.45 -0.72,0.91 -1.1,1.37 -0.38,0.46 -0.76,0.9 -1.14,1.33 0.45,0.41 0.87,0.88 1.27,1.41 0.4,0.53 0.75,1.08 1.05,1.63l-1.18 0c-0.32,-0.52 -0.65,-1 -1,-1.45 -0.35,-0.44 -0.71,-0.85 -1.09,-1.22l0 2.67 -1.02 0 0 -2.67c-0.39,0.39 -0.76,0.81 -1.09,1.24 -0.34,0.43 -0.67,0.91 -0.99,1.43l-1.17 0c0.15,-0.27 0.31,-0.55 0.5,-0.82zm7.89 0.82l0 -5.74 1.04 0 0 3.81c0.19,-0.3 0.4,-0.62 0.64,-0.97 0.24,-0.34 0.49,-0.69 0.75,-1.03 0.26,-0.34 0.51,-0.67 0.77,-0.99 0.25,-0.32 0.49,-0.59 0.71,-0.82l0.85 0 0 5.74 -1.03 0 0 -4.11c-0.23,0.28 -0.48,0.59 -0.73,0.93 -0.26,0.34 -0.51,0.7 -0.76,1.07 -0.25,0.37 -0.49,0.73 -0.72,1.09 -0.23,0.36 -0.44,0.7 -0.63,1.02l-0.89 0zm7.16 -2.59l0 1.75c0.12,0.01 0.24,0.02 0.37,0.02 0.13,0.01 0.25,0.01 0.36,0.01 0.22,0 0.42,-0.01 0.6,-0.04 0.18,-0.03 0.34,-0.08 0.48,-0.15 0.14,-0.07 0.24,-0.16 0.32,-0.28 0.08,-0.12 0.12,-0.27 0.12,-0.45 0,-0.33 -0.12,-0.55 -0.36,-0.68 -0.24,-0.13 -0.57,-0.19 -0.99,-0.19l-0.92 0zm0 -0.82l0.74 0c0.4,0 0.71,-0.06 0.94,-0.17 0.23,-0.11 0.34,-0.32 0.34,-0.61 0,-0.28 -0.12,-0.47 -0.35,-0.59 -0.23,-0.12 -0.54,-0.17 -0.92,-0.17 -0.16,0 -0.3,0 -0.43,0.01 -0.12,0.01 -0.23,0.01 -0.32,0.02l0 1.51zm0.7 3.47c-0.3,0 -0.61,-0.01 -0.92,-0.03 -0.31,-0.02 -0.58,-0.06 -0.81,-0.12l0 -5.58c0.12,-0.02 0.25,-0.04 0.39,-0.06 0.14,-0.02 0.28,-0.03 0.42,-0.05 0.14,-0.01 0.29,-0.02 0.43,-0.03 0.14,-0.01 0.27,-0.01 0.4,-0.01 0.35,0 0.67,0.03 0.97,0.08 0.3,0.05 0.56,0.14 0.77,0.26 0.22,0.12 0.39,0.28 0.51,0.48 0.12,0.2 0.18,0.44 0.18,0.74 0,0.27 -0.06,0.5 -0.19,0.7 -0.13,0.19 -0.31,0.35 -0.54,0.46 0.35,0.12 0.6,0.29 0.77,0.51 0.17,0.23 0.25,0.51 0.25,0.86 0,0.59 -0.22,1.03 -0.65,1.33 -0.43,0.3 -1.09,0.44 -1.98,0.44m0 0l0 0 0 0zm5.84 -4.7c-0.13,0.29 -0.27,0.65 -0.44,1.07 -0.16,0.42 -0.33,0.88 -0.51,1.37l1.89 0c-0.18,-0.49 -0.35,-0.95 -0.51,-1.38 -0.17,-0.42 -0.31,-0.78 -0.43,-1.06m1.69 4.63c-0.08,-0.23 -0.16,-0.45 -0.24,-0.67 -0.08,-0.22 -0.16,-0.45 -0.24,-0.68l-2.43 0c-0.08,0.23 -0.16,0.46 -0.24,0.68 -0.08,0.22 -0.16,0.45 -0.24,0.67l-1.09 0c0.22,-0.61 0.42,-1.18 0.61,-1.7 0.19,-0.52 0.38,-1.01 0.57,-1.47 0.19,-0.46 0.37,-0.91 0.55,-1.33 0.18,-0.42 0.37,-0.83 0.56,-1.24l1 0c0.19,0.41 0.38,0.82 0.56,1.24 0.18,0.42 0.37,0.86 0.55,1.33 0.19,0.46 0.38,0.96 0.57,1.47 0.2,0.52 0.4,1.09 0.62,1.7l-1.13 0zm5.39 -5.74l1.04 0 0 5.74 -1.04 0 0 -2.54 -2.49 0 0 2.54 -1.04 0 0 -5.74 1.04 0 0 2.3 2.49 0 0 -2.3zm2.42 5.74l0 -5.74 1.04 0 0 3.81c0.19,-0.3 0.4,-0.62 0.64,-0.97 0.24,-0.34 0.49,-0.69 0.75,-1.03 0.26,-0.34 0.51,-0.67 0.77,-0.99 0.25,-0.32 0.49,-0.59 0.71,-0.82l0.85 0 0 5.74 -1.03 0 0 -4.11c-0.23,0.28 -0.48,0.59 -0.73,0.93 -0.26,0.34 -0.51,0.7 -0.76,1.07 -0.25,0.37 -0.49,0.73 -0.72,1.09 -0.23,0.36 -0.44,0.7 -0.63,1.02l-0.89 0zm8.55 -4.9c-0.21,0 -0.4,0.02 -0.58,0.05 -0.18,0.03 -0.34,0.08 -0.47,0.15 -0.13,0.07 -0.24,0.17 -0.31,0.29 -0.07,0.12 -0.11,0.27 -0.11,0.45 0,0.19 0.04,0.34 0.11,0.46 0.07,0.12 0.18,0.22 0.32,0.29 0.14,0.07 0.31,0.12 0.51,0.15 0.2,0.03 0.43,0.04 0.68,0.04l0.46 0 0 -1.86c-0.19,-0.02 -0.4,-0.03 -0.61,-0.03m0.08 -0.9c0.23,0 0.48,0.01 0.77,0.03 0.29,0.02 0.56,0.06 0.81,0.11l0 5.66 -1.04 0 0 -2.15 -0.6 0c-0.07,0 -0.15,-0 -0.22,-0 -0.08,-0 -0.15,-0.01 -0.22,-0.02 -0.11,0.13 -0.22,0.28 -0.33,0.45 -0.11,0.17 -0.22,0.35 -0.33,0.54 -0.11,0.19 -0.22,0.39 -0.32,0.59 -0.11,0.2 -0.21,0.4 -0.31,0.6l-1.11 0c0.1,-0.22 0.21,-0.43 0.32,-0.65 0.12,-0.22 0.23,-0.43 0.35,-0.64 0.12,-0.21 0.24,-0.4 0.36,-0.58 0.12,-0.18 0.23,-0.33 0.33,-0.46 -0.38,-0.14 -0.65,-0.34 -0.83,-0.61 -0.18,-0.27 -0.27,-0.61 -0.27,-1 0,-0.31 0.06,-0.58 0.19,-0.81 0.12,-0.23 0.3,-0.42 0.53,-0.58 0.23,-0.15 0.51,-0.27 0.83,-0.34 0.33,-0.08 0.69,-0.12 1.09,-0.12m0 0l0 0 0 0zm5.92 3.21l0 1.75c0.12,0.01 0.24,0.02 0.37,0.02 0.13,0.01 0.25,0.01 0.36,0.01 0.22,0 0.42,-0.01 0.6,-0.04 0.18,-0.03 0.34,-0.08 0.48,-0.15 0.14,-0.07 0.24,-0.16 0.32,-0.28 0.08,-0.12 0.12,-0.27 0.12,-0.45 0,-0.33 -0.12,-0.55 -0.36,-0.68 -0.24,-0.13 -0.57,-0.19 -0.99,-0.19l-0.92 0zm0 -0.82l0.74 0c0.4,0 0.71,-0.06 0.94,-0.17 0.23,-0.11 0.34,-0.32 0.34,-0.61 0,-0.28 -0.12,-0.47 -0.35,-0.59 -0.23,-0.12 -0.54,-0.17 -0.92,-0.17 -0.16,0 -0.3,0 -0.43,0.01 -0.12,0.01 -0.23,0.01 -0.32,0.02l0 1.51zm0.7 3.47c-0.3,0 -0.61,-0.01 -0.92,-0.03 -0.31,-0.02 -0.58,-0.06 -0.81,-0.12l0 -5.58c0.12,-0.02 0.25,-0.04 0.39,-0.06 0.14,-0.02 0.28,-0.03 0.42,-0.05 0.14,-0.01 0.29,-0.02 0.43,-0.03 0.14,-0.01 0.27,-0.01 0.4,-0.01 0.35,0 0.67,0.03 0.97,0.08 0.3,0.05 0.56,0.14 0.77,0.26 0.22,0.12 0.39,0.28 0.51,0.48 0.12,0.2 0.18,0.44 0.18,0.74 0,0.27 -0.06,0.5 -0.19,0.7 -0.13,0.19 -0.31,0.35 -0.54,0.46 0.35,0.12 0.6,0.29 0.77,0.51 0.17,0.23 0.25,0.51 0.25,0.86 0,0.59 -0.22,1.03 -0.65,1.33 -0.43,0.3 -1.09,0.44 -1.98,0.44m0 0l0 0 0 0zm3.71 -0.07l0 -5.74 3.69 0 0 0.89 -2.64 0 0 1.42 2.35 0 0 0.87 -2.35 0 0 1.68 2.84 0 0 0.89 -3.89 0zm6.24 -0.85l0.21 0c0.08,0 0.16,-0 0.26,-0.01 0.17,-0.01 0.34,-0.02 0.49,-0.06 0.16,-0.03 0.3,-0.09 0.41,-0.16 0.12,-0.07 0.21,-0.17 0.28,-0.28 0.07,-0.12 0.1,-0.26 0.1,-0.44 0,-0.2 -0.04,-0.36 -0.11,-0.49 -0.07,-0.13 -0.18,-0.23 -0.32,-0.3 -0.14,-0.07 -0.31,-0.13 -0.5,-0.16 -0.2,-0.03 -0.42,-0.05 -0.67,-0.05l-0.53 0 0 1.92c0.05,0.01 0.1,0.01 0.16,0.01 0.06,0 0.13,0 0.2,0m-0.36 -4.01l0 1.21 0.56 0c0.41,0 0.78,0.03 1.11,0.1 0.33,0.07 0.6,0.17 0.83,0.32 0.23,0.15 0.4,0.34 0.52,0.57 0.12,0.23 0.18,0.52 0.18,0.86 0,0.62 -0.23,1.09 -0.68,1.4 -0.45,0.31 -1.09,0.46 -1.93,0.46 -0.23,0 -0.49,-0.01 -0.79,-0.04 -0.29,-0.02 -0.57,-0.07 -0.83,-0.13l0 -5.63 3.68 0 0 0.89 -2.66 0zm7.62 4.86c-0.14,-0.22 -0.31,-0.45 -0.5,-0.7 -0.19,-0.24 -0.39,-0.48 -0.59,-0.7 -0.21,-0.23 -0.42,-0.44 -0.64,-0.65 -0.22,-0.2 -0.44,-0.38 -0.65,-0.53l0 2.58 -1.04 0 0 -5.74 1.04 0 0 2.37c0.18,-0.18 0.37,-0.38 0.57,-0.58 0.2,-0.21 0.4,-0.42 0.59,-0.63 0.2,-0.21 0.38,-0.42 0.56,-0.62 0.18,-0.2 0.34,-0.38 0.48,-0.54l1.25 0c-0.18,0.21 -0.38,0.43 -0.58,0.65 -0.2,0.23 -0.41,0.45 -0.63,0.68 -0.22,0.23 -0.43,0.46 -0.65,0.68 -0.22,0.23 -0.43,0.44 -0.64,0.65 0.23,0.18 0.47,0.38 0.71,0.62 0.24,0.23 0.48,0.49 0.71,0.75 0.23,0.27 0.45,0.55 0.67,0.84 0.21,0.29 0.41,0.58 0.58,0.87l-1.23 0zm4.34 -4.63c-0.13,0.29 -0.27,0.65 -0.44,1.07 -0.16,0.42 -0.33,0.88 -0.51,1.37l1.89 0c-0.18,-0.49 -0.35,-0.95 -0.51,-1.38 -0.17,-0.42 -0.31,-0.78 -0.43,-1.06m1.69 4.63c-0.08,-0.23 -0.16,-0.45 -0.24,-0.67 -0.08,-0.22 -0.16,-0.45 -0.24,-0.68l-2.43 0c-0.08,0.23 -0.16,0.46 -0.24,0.68 -0.08,0.22 -0.16,0.45 -0.24,0.67l-1.09 0c0.22,-0.61 0.42,-1.18 0.61,-1.7 0.19,-0.52 0.38,-1.01 0.57,-1.47 0.19,-0.46 0.37,-0.91 0.55,-1.33 0.18,-0.42 0.37,-0.83 0.56,-1.24l1 0c0.19,0.41 0.38,0.82 0.56,1.24 0.18,0.42 0.37,0.86 0.55,1.33 0.19,0.46 0.38,0.96 0.57,1.47 0.2,0.52 0.4,1.09 0.62,1.7l-1.13 0zm3.1 -5.74c0.12,0.21 0.26,0.47 0.41,0.77 0.15,0.3 0.3,0.62 0.46,0.96 0.15,0.33 0.31,0.67 0.46,1.02 0.15,0.35 0.29,0.66 0.42,0.96 0.13,-0.29 0.26,-0.61 0.41,-0.96 0.15,-0.34 0.3,-0.68 0.46,-1.02 0.15,-0.33 0.31,-0.65 0.46,-0.96 0.15,-0.3 0.28,-0.56 0.41,-0.77l0.94 0c0.05,0.42 0.1,0.87 0.14,1.34 0.05,0.47 0.09,0.96 0.12,1.45 0.04,0.49 0.07,0.99 0.1,1.49 0.03,0.5 0.06,0.99 0.08,1.46l-1.03 0c-0.02,-0.67 -0.05,-1.36 -0.08,-2.06 -0.03,-0.71 -0.08,-1.39 -0.14,-2.05 -0.06,0.13 -0.13,0.28 -0.22,0.46 -0.08,0.18 -0.17,0.37 -0.27,0.58 -0.09,0.21 -0.19,0.42 -0.29,0.64 -0.1,0.22 -0.19,0.43 -0.28,0.64 -0.09,0.21 -0.17,0.4 -0.25,0.58 -0.08,0.18 -0.14,0.33 -0.2,0.46l-0.78 0c-0.06,-0.13 -0.12,-0.28 -0.2,-0.46 -0.08,-0.18 -0.16,-0.38 -0.25,-0.58 -0.09,-0.21 -0.19,-0.42 -0.28,-0.64 -0.1,-0.22 -0.19,-0.43 -0.29,-0.64 -0.09,-0.2 -0.18,-0.4 -0.27,-0.58 -0.08,-0.18 -0.15,-0.33 -0.22,-0.45 -0.06,0.66 -0.11,1.35 -0.14,2.05 -0.03,0.71 -0.06,1.39 -0.08,2.06l-1.03 0c0.02,-0.48 0.05,-0.97 0.08,-1.47 0.03,-0.51 0.06,-1.01 0.1,-1.51 0.04,-0.5 0.08,-0.98 0.12,-1.45 0.04,-0.47 0.09,-0.9 0.14,-1.3l0.97 0zm9.25 0c0.12,0.21 0.26,0.47 0.41,0.77 0.15,0.3 0.3,0.62 0.46,0.96 0.15,0.33 0.31,0.67 0.46,1.02 0.15,0.35 0.29,0.66 0.42,0.96 0.13,-0.29 0.27,-0.61 0.41,-0.96 0.15,-0.34 0.3,-0.68 0.46,-1.02 0.15,-0.33 0.31,-0.65 0.46,-0.96 0.15,-0.3 0.28,-0.56 0.41,-0.77l0.94 0c0.05,0.42 0.1,0.87 0.14,1.34 0.05,0.47 0.09,0.96 0.12,1.45 0.04,0.49 0.07,0.99 0.1,1.49 0.03,0.5 0.06,0.99 0.08,1.46l-1.03 0c-0.02,-0.67 -0.05,-1.36 -0.08,-2.06 -0.03,-0.71 -0.08,-1.39 -0.14,-2.05 -0.06,0.13 -0.13,0.28 -0.22,0.46 -0.08,0.18 -0.17,0.37 -0.27,0.58 -0.09,0.21 -0.19,0.42 -0.29,0.64 -0.1,0.22 -0.19,0.43 -0.28,0.64 -0.09,0.21 -0.18,0.4 -0.25,0.58 -0.08,0.18 -0.14,0.33 -0.2,0.46l-0.78 0c-0.06,-0.13 -0.12,-0.28 -0.2,-0.46 -0.08,-0.18 -0.16,-0.38 -0.25,-0.58 -0.09,-0.21 -0.19,-0.42 -0.28,-0.64 -0.1,-0.22 -0.19,-0.43 -0.29,-0.64 -0.09,-0.2 -0.18,-0.4 -0.27,-0.58 -0.08,-0.18 -0.15,-0.33 -0.22,-0.45 -0.06,0.66 -0.11,1.35 -0.14,2.05 -0.03,0.71 -0.06,1.39 -0.08,2.06l-1.03 0c0.02,-0.48 0.05,-0.97 0.08,-1.47 0.03,-0.51 0.06,-1.01 0.1,-1.51 0.04,-0.5 0.08,-0.98 0.12,-1.45 0.05,-0.47 0.09,-0.9 0.14,-1.3l0.97 0zm6.92 2.87c0,0.31 0.04,0.6 0.12,0.86 0.08,0.26 0.19,0.48 0.34,0.66 0.15,0.18 0.32,0.32 0.53,0.42 0.21,0.1 0.45,0.15 0.71,0.15 0.26,0 0.49,-0.05 0.7,-0.15 0.21,-0.1 0.39,-0.24 0.53,-0.42 0.15,-0.18 0.26,-0.4 0.34,-0.66 0.08,-0.26 0.12,-0.54 0.12,-0.86 0,-0.31 -0.04,-0.6 -0.12,-0.86 -0.08,-0.26 -0.19,-0.48 -0.34,-0.65 -0.15,-0.18 -0.32,-0.32 -0.53,-0.42 -0.21,-0.1 -0.45,-0.15 -0.7,-0.15 -0.27,0 -0.5,0.05 -0.71,0.15 -0.21,0.1 -0.39,0.24 -0.53,0.42 -0.15,0.18 -0.26,0.4 -0.34,0.65 -0.08,0.25 -0.12,0.54 -0.12,0.85m4.48 0c0,0.49 -0.07,0.93 -0.22,1.3 -0.15,0.38 -0.34,0.69 -0.6,0.94 -0.25,0.25 -0.55,0.44 -0.88,0.57 -0.34,0.13 -0.7,0.19 -1.08,0.19 -0.38,0 -0.74,-0.06 -1.08,-0.19 -0.34,-0.13 -0.64,-0.32 -0.89,-0.57 -0.25,-0.25 -0.45,-0.57 -0.6,-0.94 -0.15,-0.38 -0.22,-0.81 -0.22,-1.3 0,-0.49 0.07,-0.92 0.22,-1.3 0.15,-0.37 0.35,-0.69 0.61,-0.94 0.26,-0.25 0.55,-0.44 0.89,-0.57 0.34,-0.13 0.69,-0.19 1.07,-0.19 0.38,0 0.73,0.06 1.07,0.19 0.34,0.13 0.63,0.32 0.88,0.57 0.25,0.25 0.45,0.57 0.6,0.94 0.15,0.37 0.22,0.81 0.22,1.3zm3.09 -1.97c-0.02,0.33 -0.04,0.67 -0.06,1.02 -0.02,0.35 -0.06,0.69 -0.12,1.03 -0.06,0.34 -0.14,0.67 -0.24,0.99 -0.11,0.32 -0.25,0.63 -0.43,0.92l2.34 0 0 -3.96 -1.49 0zm-2.72 3.96l0.71 0c0.25,-0.34 0.44,-0.7 0.58,-1.08 0.14,-0.38 0.23,-0.77 0.3,-1.18 0.06,-0.41 0.1,-0.83 0.11,-1.26 0.01,-0.43 0.02,-0.88 0.02,-1.34l3.52 0 0 4.86 0.85 0 0 2.42 -1 0 0 -1.53 -4.08 0 0 1.53 -1 0 0 -2.42zm6.92 0.89l0 -5.74 3.69 0 0 0.89 -2.64 0 0 1.42 2.35 0 0 0.87 -2.35 0 0 1.68 2.84 0 0 0.89 -3.89 0zm7.04 -4.85c-0.02,0.38 -0.04,0.76 -0.06,1.15 -0.02,0.39 -0.06,0.77 -0.12,1.13 -0.06,0.36 -0.14,0.7 -0.25,1.02 -0.11,0.32 -0.26,0.6 -0.46,0.84 -0.19,0.24 -0.43,0.43 -0.73,0.58 -0.29,0.14 -0.65,0.22 -1.06,0.23l-0.12 -0.91c0.2,-0.02 0.37,-0.06 0.52,-0.12 0.15,-0.06 0.28,-0.13 0.39,-0.22 0.11,-0.09 0.21,-0.2 0.29,-0.34 0.08,-0.14 0.15,-0.29 0.22,-0.48 0.15,-0.43 0.25,-0.97 0.3,-1.62 0.05,-0.65 0.07,-1.37 0.07,-2.16l3.59 -0 0 5.74 -1.05 0 0 -4.85 -1.53 0zm3.96 4.85l0 -5.74 3.69 0 0 0.89 -2.64 0 0 1.42 2.35 0 0 0.87 -2.35 0 0 1.68 2.84 0 0 0.89 -3.89 0zm7.28 -6.27c-0.18,0 -0.34,-0.03 -0.49,-0.07 -0.15,-0.05 -0.29,-0.12 -0.41,-0.22 -0.12,-0.09 -0.22,-0.21 -0.3,-0.34 -0.08,-0.14 -0.12,-0.29 -0.14,-0.46l0.72 -0.19c0.09,0.39 0.3,0.59 0.62,0.59 0.33,0 0.53,-0.19 0.62,-0.58l0.71 0.19c-0.02,0.17 -0.07,0.32 -0.14,0.46 -0.07,0.14 -0.17,0.25 -0.29,0.34 -0.12,0.09 -0.26,0.16 -0.41,0.21 -0.15,0.05 -0.32,0.07 -0.49,0.07m-2.43 6.27l0 -5.74 1.04 0 0 3.81c0.19,-0.3 0.4,-0.62 0.64,-0.97 0.24,-0.35 0.49,-0.69 0.75,-1.03 0.26,-0.34 0.51,-0.67 0.77,-0.99 0.25,-0.32 0.49,-0.59 0.71,-0.82l0.85 0 0 5.74 -1.03 0 0 -4.11c-0.23,0.28 -0.48,0.59 -0.73,0.93 -0.26,0.35 -0.51,0.7 -0.76,1.07 -0.25,0.37 -0.49,0.73 -0.72,1.09 -0.23,0.36 -0.44,0.7 -0.63,1.02l-0.89 0z"/></svg>